<svg width="21.000244" height="21.000275" id="inst" viewBox="0 0 21.0002 21.0003" fill="none" xmlns="http://www.w3.org/2000/svg" xmlns:xlink="http://www.w3.org/1999/xlink">
	<desc>
			Created with Pixso.
	</desc>
	<defs/>
	<path id="Union" d="M16.5121 0.133636Q15.9073 0 15.2729 0L5.72736 0Q5.09302 0 4.48816 0.133667L4.48816 0.133667Q3.9826 0.245361 3.49774 0.45047Q3.01013 0.656708 2.57562 0.943298L2.57562 0.943329L2.57562 0.943329Q2.09399 1.26102 1.67749 1.67749Q1.26105 2.09399 0.943298 2.57562Q0.656677 3.01016 0.4505 3.49771Q0.245361 3.9826 0.133667 4.48816L0.133667 4.48819L0.133667 4.48819Q0 5.09299 0 5.72736L0 15.2729Q0 15.9073 0.133667 16.5121L0.133667 16.5122L0.133667 16.5122Q0.245422 17.0177 0.4505 17.5026Q0.656494 17.9896 0.942688 18.4237L0.943359 18.4247L0.944031 18.4257Q1.26147 18.9068 1.67749 19.3228Q2.09399 19.7393 2.57568 20.057L2.57568 20.057L2.57587 20.0571Q3.01031 20.3436 3.49774 20.5498Q3.9826 20.7549 4.48816 20.8666L4.48901 20.8668Q5.09344 21.0003 5.72736 21.0003L15.2729 21.0003Q15.9072 21.0003 16.512 20.8666L16.5121 20.8666L16.5121 20.8666L16.5123 20.8666Q17.0177 20.7549 17.5026 20.5498Q17.9901 20.3436 18.4246 20.0569Q18.9063 19.7393 19.3228 19.3228Q19.7393 18.9063 20.0569 18.4247L20.057 18.4246Q20.3436 17.9901 20.5498 17.5026Q20.7549 17.0176 20.8666 16.5121L20.8668 16.5111Q21.0002 15.9067 21.0002 15.2729L21.0002 5.72736Q21.0002 5.09314 20.8667 4.48843L20.8666 4.48813Q20.7549 3.9826 20.5498 3.49771Q20.3436 3.01028 20.0571 2.57587L20.057 2.57568L20.057 2.57565Q19.7393 2.09399 19.3228 1.67749Q18.9063 1.26105 18.4247 0.943359Q17.9902 0.656708 17.5026 0.45047Q17.0176 0.245361 16.5121 0.133667L16.5121 0.133636ZM5.72736 1.90912L15.2729 1.90912Q15.7138 1.90912 16.1324 2.00546Q16.4521 2.07904 16.7589 2.20877Q17.075 2.34247 17.3578 2.5271L17.3578 2.52713L17.3579 2.52716L17.3583 2.5274Q17.6882 2.7428 17.9728 3.02744Q18.2573 3.31195 18.4727 3.64163L18.4732 3.64246L18.4732 3.64252Q18.6578 3.92535 18.7915 4.24142Q18.9213 4.54816 18.9948 4.86783L18.9949 4.86832Q19.0911 5.28677 19.0911 5.72736L19.0911 15.2729Q19.0911 15.7138 18.9948 16.1324L18.9948 16.1326Q18.9212 16.4522 18.7915 16.7589Q18.6578 17.075 18.4731 17.3579L18.473 17.358Q18.2576 17.688 17.9728 17.9728Q17.6884 18.2573 17.3586 18.4726L17.3578 18.4731L17.3578 18.4732Q17.075 18.6578 16.7589 18.7915Q16.4521 18.9212 16.1325 18.9948L16.1324 18.9948Q15.7137 19.0912 15.2729 19.0912L5.72736 19.0912Q5.2865 19.0912 4.86786 18.9948L4.8678 18.9948Q4.54816 18.9212 4.24139 18.7915Q3.92529 18.6578 3.64246 18.4732Q3.31232 18.2577 3.02747 17.9728Q2.74268 17.688 2.52722 17.358L2.52716 17.3579L2.52618 17.3564Q2.34216 17.0742 2.2088 16.7589Q2.07904 16.4521 2.00549 16.1324L2.00537 16.1321Q1.90912 15.7136 1.90912 15.2729L1.90912 5.72736Q1.90912 5.2865 2.00549 4.86783L2.00549 4.86783Q2.07904 4.54816 2.2088 4.24142Q2.34247 3.92529 2.5271 3.64243L2.52716 3.6424L2.52716 3.6424L2.52716 3.6424Q2.74261 3.31229 3.02747 3.02744Q3.31232 2.74261 3.6424 2.52713L3.6424 2.52713Q3.92529 2.3425 4.24139 2.20877Q4.54816 2.07904 4.8678 2.00546L4.8678 2.00546Q5.2865 1.90912 5.72736 1.90912ZM15.7602 4.2955C16.2947 4.2955 16.7148 4.71552 16.7148 5.25006C16.7148 5.78461 16.2947 6.20462 15.7602 6.20462L15.7502 6.20462C15.2156 6.20462 14.7957 5.78461 14.7957 5.25006C14.7957 4.71552 15.2156 4.2955 15.7502 4.2955L15.7602 4.2955ZM14.7779 12.657Q14.6046 12.9911 14.384 13.2905Q14.1633 13.5899 13.8954 13.8545Q13.6276 14.119 13.3255 14.3359Q13.0235 14.5528 12.6873 14.722Q12.351 14.8913 11.9968 15.0047L11.9968 15.0047Q11.6426 15.1181 11.2706 15.1756Q10.8986 15.2331 10.5268 15.232Q10.1549 15.2308 9.7832 15.171Q9.4115 15.1112 9.05811 14.9956Q8.70465 14.8801 8.36938 14.7087Q8.03418 14.5374 7.73346 14.3186Q7.43274 14.0999 7.16656 13.8337Q6.90039 13.5675 6.68164 13.2668Q6.46283 12.9661 6.29156 12.6309Q6.12024 12.2957 6.00464 11.9423L6.00464 11.9422Q5.8891 11.5888 5.82928 11.2171Q5.76947 10.8454 5.76831 10.4736Q5.76715 10.1017 5.82471 9.72964Q5.8822 9.35767 5.99554 9.00354L5.99561 9.00348Q6.10895 8.64932 6.2782 8.31305Q6.44745 7.97678 6.66437 7.67474Q6.88129 7.37268 7.14581 7.10483Q7.41034 6.83704 7.70972 6.61642L7.70972 6.61639L7.70972 6.61639Q8.00909 6.39578 8.34326 6.22241Q8.67737 6.04901 9.03015 5.93127L9.03015 5.93124Q9.38287 5.81354 9.75415 5.75143Q10.1254 5.68933 10.4973 5.68588Q10.8691 5.68246 11.2415 5.73767Q11.6214 5.79401 11.9828 5.90851Q12.3442 6.02298 12.6873 6.19562Q13.0302 6.36823 13.3374 6.59027L13.3375 6.59033Q13.6448 6.81241 13.9163 7.08395Q14.1879 7.3555 14.41 7.66278Q14.632 7.97003 14.8047 8.31305Q14.9773 8.65604 15.0918 9.01746Q15.2063 9.37891 15.2626 9.75876Q15.3178 10.1311 15.3144 10.503Q15.311 10.8748 15.2488 11.2461Q15.1868 11.6174 15.069 11.9701L15.069 11.9702Q14.9513 12.3229 14.7779 12.657ZM13.0833 11.7778Q13.1873 11.5773 13.258 11.3657Q13.3286 11.154 13.3659 10.9312Q13.4031 10.7084 13.4052 10.4853L13.4052 10.4853L13.4052 10.4852Q13.4073 10.2622 13.3741 10.0388Q13.3403 9.81085 13.2717 9.59399Q13.2029 9.37714 13.0994 9.17136Q12.9958 8.96558 12.8625 8.78122L12.8625 8.78116Q12.7292 8.59683 12.5663 8.43393Q12.4035 8.27103 12.2192 8.13779L12.2191 8.13779Q12.0347 8.00449 11.8289 7.90091Q11.6231 7.7973 11.4062 7.72864L11.4062 7.72861Q11.1894 7.65994 10.9615 7.62613Q10.7381 7.59302 10.515 7.59506Q10.2919 7.59714 10.0691 7.6344Q9.84631 7.67166 9.63464 7.74231L9.63464 7.74231Q9.42297 7.81296 9.22253 7.91699Q9.02203 8.021 8.84247 8.15335L8.84241 8.15338Q8.66278 8.28574 8.50409 8.44644Q8.34534 8.60715 8.21521 8.78839L8.21515 8.78845Q8.08502 8.96964 7.98352 9.17136Q7.88196 9.37314 7.8139 9.58563L7.8139 9.58569Q7.74591 9.79816 7.71136 10.0213Q7.67688 10.2446 7.67755 10.4677Q7.67828 10.6908 7.71417 10.9138Q7.75 11.1367 7.81934 11.3488L7.81934 11.3488L7.8194 11.3489Q7.88873 11.5609 7.99152 11.7621Q8.0943 11.9632 8.22552 12.1436L8.22559 12.1436L8.22559 12.1437Q8.35681 12.3241 8.51654 12.4838Q8.67621 12.6435 8.85663 12.7747L8.85663 12.7747L8.85663 12.7747Q9.03711 12.906 9.23822 13.0088Q9.43939 13.1116 9.65149 13.1809Q9.86353 13.2503 10.0865 13.2861Q10.3095 13.322 10.5327 13.3227L10.5327 13.3227Q10.7557 13.3234 10.9789 13.2889Q11.2021 13.2544 11.4147 13.1864L11.4147 13.1863L11.4147 13.1863Q11.6272 13.1183 11.8289 13.0168Q12.0307 12.9152 12.212 12.7851Q12.3932 12.6549 12.5538 12.4962Q12.7145 12.3375 12.8469 12.1579L12.8469 12.1579Q12.9792 11.9783 13.0833 11.7778Z" clip-rule="evenodd" fill="#FFFFFF" fill-opacity="1.000000" fill-rule="evenodd"/>
</svg>
