<svg width="95.900146" height="43.983826" id="logo" viewBox="0 0 95.9001 43.9838" fill="none" xmlns="http://www.w3.org/2000/svg" xmlns:xlink="http://www.w3.org/1999/xlink">
	<desc>
			Created with Pixso.
	</desc>
	<defs/>
	<path id="Macera Türkiye" d="M12.8878 17L12.8878 6.44374L9.86597 6.44374L6.93225 13.7505L3.96915 6.44374L0.932623 6.44374L0.932623 17L3.50284 17L3.50284 10.6516L5.88213 17L7.95667 17L10.3176 10.6699L10.3176 17L12.8878 17ZM14.7168 10.5194Q14.2285 11.4961 14.2285 12.7885Q14.2285 14.081 14.7168 15.0687Q15.1206 15.8824 15.7654 16.3897Q15.9004 16.496 16.046 16.5888Q16.4074 16.8166 16.8012 16.947Q17.3274 17.1212 17.9112 17.1212Q18.7998 17.1212 19.4681 16.7613Q20.0274 16.4571 20.3836 15.9958Q20.4529 15.9061 20.5145 15.8104L20.5145 17L23.0847 17L23.0847 8.60639L20.5145 8.60639L20.5145 9.79604Q20.4628 9.71165 20.4047 9.63196Q20.0581 9.15687 19.4827 8.84873Q18.8145 8.4889 17.9259 8.4889Q17.2701 8.4889 16.6909 8.69952Q16.3556 8.82145 16.046 9.01396Q15.9006 9.10474 15.7658 9.20913Q15.1207 9.70852 14.7168 10.5194ZM24.9727 10.5194Q24.4403 11.4961 24.4403 12.8032Q24.4403 14.114 24.9727 15.0907Q25.2766 15.6445 25.7152 16.0542Q26.05 16.3672 26.4634 16.5961Q26.4885 16.6099 26.5138 16.6233Q27.4505 17.1212 28.6518 17.1212Q29.9292 17.1212 30.8736 16.5603Q31.0856 16.4344 31.2807 16.2803Q31.5747 16.048 31.8128 15.7681Q32.4401 15.0307 32.6797 13.9635L29.9442 13.9635Q29.7647 14.4639 29.4093 14.704Q29.0814 14.9255 28.604 14.9255Q28.2335 14.9255 27.9411 14.7744Q27.6771 14.6379 27.4768 14.3784Q27.0545 13.8276 27.0545 12.8032Q27.0545 11.7825 27.4768 11.2354Q27.6795 10.971 27.9473 10.8335Q28.2374 10.6846 28.604 10.6846Q29.0814 10.6846 29.4093 10.9061Q29.7647 11.1462 29.9442 11.6466L32.6797 11.6466Q32.4203 10.4651 31.7109 9.70203Q31.5164 9.49281 31.2881 9.31504Q31.1427 9.2015 30.9876 9.10356Q30.0136 8.4889 28.6518 8.4889Q27.4505 8.4889 26.5138 8.98673Q26.4885 9.00016 26.4634 9.01396Q26.0627 9.23433 25.7358 9.5349Q25.2838 9.95048 24.9727 10.5194ZM41.9144 13.4201Q41.9584 13.0308 41.9584 12.6673Q41.9584 11.4043 41.426 10.457Q41.143 9.95333 40.7427 9.57321Q40.39 9.23831 39.9463 8.99927Q39.9376 8.99456 39.9288 8.9899Q38.9878 8.4889 37.78 8.4889Q36.5322 8.4889 35.5706 9.01344L35.5696 9.01396Q35.1472 9.24451 34.8069 9.56286Q34.3722 9.9695 34.0715 10.5194Q33.5391 11.4961 33.5391 12.8032Q33.5391 14.114 34.0789 15.0907Q34.3826 15.6365 34.8169 16.0424Q35.1599 16.3628 35.5843 16.5961Q35.6237 16.6176 35.6635 16.6382Q36.5968 17.1212 37.78 17.1212Q38.8007 17.1212 39.6269 16.7466Q40.2896 16.4446 40.7721 15.9622Q40.8937 15.8406 41.0038 15.7075Q41.2939 15.3594 41.4892 14.9645Q41.6648 14.6096 41.7638 14.2168L39.0284 14.2168Q38.8628 14.5722 38.5851 14.772Q38.2289 15.0283 37.6882 15.0283Q37.2864 15.0283 36.9627 14.8693Q36.7658 14.7726 36.5977 14.617Q36.568 14.5893 36.5401 14.56Q36.1495 14.1499 36.0947 13.4201L41.9144 13.4201ZM49.7287 10.5194Q49.2403 11.4961 49.2403 12.7885Q49.2403 14.081 49.7287 15.0687Q50.1325 15.8824 50.7773 16.3897Q50.9123 16.496 51.0578 16.5888Q51.4193 16.8166 51.813 16.947Q52.3392 17.1212 52.9231 17.1212Q53.8117 17.1212 54.4799 16.7613Q55.0393 16.4571 55.3954 15.9958Q55.4647 15.9061 55.5264 15.8104L55.5264 17L58.0966 17L58.0966 8.60639L55.5264 8.60639L55.5264 9.79604Q55.4747 9.71165 55.4165 9.63196Q55.07 9.15687 54.4946 8.84873Q53.8263 8.4889 52.9378 8.4889Q52.282 8.4889 51.7028 8.69952Q51.3675 8.82145 51.0578 9.01396Q50.9125 9.10474 50.7776 9.20913Q50.1326 9.70852 49.7287 10.5194ZM46.6809 9.14013Q46.2204 9.49128 45.884 10.0053L45.884 8.60639L43.3138 8.60639L43.3138 17L45.884 17L45.884 13.1043Q45.884 12.0688 46.365 11.6539Q46.8497 11.239 47.8117 11.239L48.5167 11.239L48.5167 8.51827Q47.9651 8.51827 47.4791 8.69665Q47.237 8.78546 47.0113 8.91849Q46.8388 9.01974 46.6809 9.14013ZM39.1408 11.2508Q39.3295 11.5645 39.3295 11.9917L36.1094 11.9917Q36.2013 11.396 36.542 11.0355Q36.5961 10.9782 36.6565 10.9269Q36.7803 10.8215 36.9202 10.7454Q37.282 10.5487 37.7506 10.5487Q38.2505 10.5487 38.6278 10.7638Q38.7604 10.8394 38.8779 10.9416Q39.0375 11.0792 39.1408 11.2508ZM20.1138 11.4444Q20.5145 11.9715 20.5145 12.8032Q20.5145 13.6329 20.1157 14.1621Q20.0522 14.2465 19.9784 14.3233Q19.7108 14.602 19.3838 14.7406Q19.0603 14.8777 18.6786 14.8777Q18.3096 14.8777 17.994 14.7478Q17.6534 14.6076 17.3752 14.316Q17.3036 14.24 17.2417 14.1568Q16.8428 13.6212 16.8428 12.7885Q16.8428 11.9457 17.2514 11.4214Q17.3092 11.3472 17.3752 11.2794Q17.6446 11.0026 17.9724 10.865Q18.2969 10.7287 18.6786 10.7287Q19.056 10.7287 19.3766 10.8636Q19.7078 11.0031 19.9784 11.2868Q20.051 11.3618 20.1138 11.4444ZM55.1256 11.4444Q55.5264 11.9715 55.5264 12.8032Q55.5264 13.6329 55.1276 14.1621Q55.064 14.2465 54.9903 14.3233Q54.7226 14.602 54.3956 14.7406Q54.0721 14.8777 53.6905 14.8777Q53.3214 14.8777 53.0059 14.7478Q52.6653 14.6076 52.387 14.316Q52.3155 14.24 52.2535 14.1568Q51.8546 13.6212 51.8546 12.7885Q51.8546 11.9457 52.2632 11.4214Q52.321 11.3472 52.387 11.2794Q52.6564 11.0026 52.9843 10.8649Q53.3088 10.7287 53.6905 10.7287Q54.0679 10.7287 54.3884 10.8636Q54.7197 11.0031 54.9903 11.2868Q55.0629 11.3618 55.1256 11.4444ZM36.0933 30.5052Q36.4657 30.7362 36.9813 30.7362Q37.4607 30.7362 37.8184 30.5275Q37.9538 30.4485 38.0718 30.3396Q38.2862 30.1399 38.3936 29.8935Q38.5014 29.6462 38.5014 29.3519Q38.5014 29.0233 38.3734 28.7558Q38.2669 28.5333 38.0718 28.3532Q37.9495 28.2394 37.8086 28.1579Q37.4541 27.953 36.9813 27.953Q36.4725 27.953 36.1032 28.18Q35.9822 28.2544 35.8761 28.3532Q35.681 28.5333 35.5745 28.7558Q35.4465 29.0232 35.4465 29.3519Q35.4465 29.6462 35.5543 29.8935Q35.6617 30.1399 35.8761 30.3396Q35.9778 30.4335 36.0933 30.5052ZM11.9681 30.5699Q12.1861 30.6738 12.4536 30.6738Q12.7126 30.6738 12.9274 30.5763Q13.0994 30.4984 13.243 30.358Q13.3876 30.2167 13.4675 30.0452Q13.5661 29.8335 13.5661 29.5759Q13.5661 29.275 13.4425 29.0387Q13.3685 28.8973 13.2504 28.7792Q13.1322 28.661 12.9908 28.587Q12.7546 28.4634 12.4536 28.4634Q12.2007 28.4634 11.9921 28.5595Q11.816 28.6406 11.6715 28.7902Q11.5268 28.9383 11.4484 29.1157Q11.3557 29.3253 11.3557 29.5759Q11.3557 29.8434 11.4596 30.0614Q11.5369 30.2234 11.6715 30.358Q11.8061 30.4926 11.9681 30.5699ZM14.9753 30.5699Q15.1932 30.6738 15.4607 30.6738Q15.7198 30.6738 15.9346 30.5763Q16.1065 30.4984 16.2502 30.358Q16.3948 30.2167 16.4747 30.0452Q16.5733 29.8335 16.5733 29.5759Q16.5733 29.275 16.4496 29.0387Q16.3757 28.8973 16.2575 28.7792Q16.1393 28.661 15.998 28.587Q15.7617 28.4634 15.4607 28.4634Q15.2079 28.4634 14.9993 28.5595Q14.8232 28.6406 14.6787 28.7902Q14.5339 28.9383 14.4555 29.1157Q14.3629 29.3253 14.3629 29.5759Q14.3629 29.8434 14.4668 30.0614Q14.544 30.2234 14.6787 30.358Q14.8133 30.4926 14.9753 30.5699ZM28.9646 36.4825L31.5239 40L34.7109 40L31.1934 35.8179L34.6816 31.6064L31.5092 31.6064L28.9646 35.0211L28.9646 28.8709L26.3944 28.8709L26.3944 40L28.9646 40L28.9646 36.4825ZM8.52579 31.5036L8.52579 29.4437L0.359831 29.4437L0.359831 31.5036L3.1577 31.5036L3.1577 40L5.73159 40L5.73159 31.5036L8.52579 31.5036ZM57.4953 36.4201Q57.5393 36.0308 57.5393 35.6673Q57.5393 34.4043 57.0069 33.457Q56.7239 32.9533 56.3236 32.5732Q55.9709 32.2383 55.5272 31.9993Q55.5185 31.9946 55.5097 31.9899Q54.5687 31.4889 53.3609 31.4889Q52.1131 31.4889 51.1515 32.0134L51.1505 32.014Q50.7281 32.2445 50.3878 32.5628Q49.9531 32.9695 49.6524 33.5194Q49.12 34.4961 49.12 35.8032Q49.12 37.114 49.6598 38.0907Q49.9634 38.6365 50.3978 39.0424Q50.7408 39.3628 51.1652 39.5961Q51.2046 39.6176 51.2444 39.6382Q52.1777 40.1212 53.3609 40.1212Q54.3816 40.1212 55.2078 39.7467Q55.8705 39.4446 56.3529 38.9622Q56.4745 38.8406 56.5847 38.7075Q56.8748 38.3594 57.0702 37.9644Q57.2457 37.6095 57.3447 37.2168L54.6093 37.2168Q54.4436 37.5722 54.166 37.772Q53.8098 38.0283 53.2691 38.0283Q52.8673 38.0283 52.5436 37.8693Q52.3466 37.7726 52.1786 37.617Q52.1489 37.5893 52.1209 37.56Q51.7304 37.1499 51.6756 36.4201L57.4953 36.4201ZM23.3246 32.1401Q22.8641 32.4913 22.5278 33.0053L22.5278 31.6064L19.9575 31.6064L19.9575 40L22.5278 40L22.5278 36.1043Q22.5278 35.0688 23.0088 34.6539Q23.4934 34.239 24.4554 34.239L25.1604 34.239L25.1604 31.5183Q24.6089 31.5183 24.1228 31.6966Q23.8808 31.7855 23.655 31.9185Q23.4825 32.0197 23.3246 32.1401ZM18.1081 40L18.1081 31.6064L15.5342 31.6064L15.5342 36.1667Q15.5342 36.9662 15.1391 37.4271Q15.1187 37.4509 15.0972 37.4738Q14.99 37.5892 14.8633 37.676Q14.4777 37.9402 13.9113 37.9402Q13.379 37.9402 13.0033 37.6976Q12.8581 37.6038 12.7363 37.4738Q12.719 37.4552 12.7025 37.4361Q12.303 36.974 12.303 36.1667L12.303 31.6064L9.74384 31.6064L9.74384 36.5118Q9.74384 37.6097 10.1514 38.4212Q10.4365 38.9887 10.8814 39.3694Q11.0726 39.5331 11.2933 39.6622Q11.3538 39.6974 11.4159 39.7298Q12.1102 40.0918 12.9933 40.0918Q13.6938 40.0918 14.2875 39.8401Q14.3816 39.8002 14.473 39.754Q15.1019 39.4344 15.4831 38.9283Q15.5092 38.8936 15.5342 38.8581L15.5342 40L18.1081 40ZM38.259 40L38.259 31.6064L35.6888 31.6064L35.6888 40L38.259 40ZM43.4337 43.9838L48.699 31.6064L45.9158 31.6064L43.9918 36.857L42.0495 31.6064L39.1782 31.6064L42.5929 39.7136L40.6652 43.9838L43.4337 43.9838ZM54.7216 34.2508Q54.9104 34.5645 54.9104 34.9917L51.6902 34.9917Q51.7821 34.396 52.1229 34.0355Q52.177 33.9782 52.2373 33.9269Q52.3612 33.8215 52.5011 33.7454Q52.8628 33.5487 53.3315 33.5487Q53.8314 33.5487 54.2086 33.7638Q54.3413 33.8394 54.4587 33.9416Q54.6184 34.0792 54.7216 34.2508Z" fill="#FFFFFF" fill-opacity="1.000000" fill-rule="evenodd"/>
	<path id="Vector" d="M80.3105 31.0444C72.4833 31.0444 66.1381 24.6992 66.1381 16.8719C66.1381 9.04474 72.4833 2.69952 80.3105 2.69952C88.1377 2.69952 94.4829 9.04474 94.4829 16.8719C94.4829 24.6992 88.1377 31.0444 80.3105 31.0444Z" stroke="#FFFFFF" stroke-opacity="1.000000" stroke-width="2.834486" stroke-linejoin="round"/>
	<path id="Vector" d="M83.3151 19.8765L74.3014 22.8811L77.306 13.8674L86.3196 10.8629L83.3151 19.8765Z" stroke="#FFFFFF" stroke-opacity="1.000000" stroke-width="2.834486" stroke-linejoin="round"/>
</svg>
