<svg width="20.899780" height="17.046326" id="twitter" viewBox="0 0 20.8998 17.0463" fill="none" xmlns="http://www.w3.org/2000/svg" xmlns:xlink="http://www.w3.org/1999/xlink">
	<desc>
			Created with Pixso.
	</desc>
	<defs/>
	<path id="Vector" d="M20.8998 0.009552C19.9901 0.651245 18.9828 1.14206 17.9168 1.46304C17.3447 0.805176 16.5843 0.338898 15.7385 0.127289C14.8928 -0.0843506 14.0024 -0.0310974 13.1879 0.279785C12.3733 0.590668 11.6739 1.14423 11.1842 1.86557C10.6945 2.58691 10.4382 3.44122 10.4499 4.31302L10.4499 5.263C8.7804 5.30627 7.12616 4.93604 5.6344 4.18518C4.14264 3.43436 2.85974 2.32623 1.89996 0.959534C1.89996 0.959534 -1.89996 9.50946 6.6499 13.3094C4.69348 14.6375 2.36279 15.3034 0 15.2094C8.54993 19.9594 18.9998 15.2094 18.9998 4.28452C18.9989 4.0199 18.9735 3.75592 18.9238 3.496C19.8934 2.53986 20.5776 1.33261 20.8998 0.009552Z" fill="#FFFFFF" fill-opacity="1.000000" fill-rule="nonzero"/>
</svg>
